<svg version="1" xmlns="http://www.w3.org/2000/svg" width="682.667" height="682.667" viewBox="0 0 512.000000 512.000000"><path d="M229.7 1.5C130.9 13.5 53.4 90 39.5 189c-2.3 16.4-2.1 43.8.5 60.8 4 27.3 12.3 51.6 25.7 75.5l5.5 9.9-2.3 2.5c-1.3 1.3-13.9 12.9-28.1 25.6-21.6 19.5-25.5 23.4-24.7 24.9 5.9 11 42.1 48.8 59.4 61.9 42.3 32.2 86.8 51 139.5 59.1 21 3.2 60 3.2 81 0 67.1-10.3 123.7-39.1 170.1-86.8 10.4-10.7 26.4-29.7 28.8-34.2.8-1.5-3.1-5.4-24.7-24.9-14.2-12.7-26.8-24.3-28.1-25.6l-2.3-2.5 5.5-9.9c18.9-33.7 27.7-67.6 27.7-107 0-25.7-2.9-45.1-10.1-67.3C433.4 60.4 348.9-.7 254 .1c-7.4.1-18.4.7-24.3 1.4zm52.5 13c68.8 9.1 128.2 52.2 158.5 115 22.5 46.8 26.2 101.7 10.1 151.5-4.8 14.9-14.5 35.6-22.2 47.5-3.1 4.7-5.6 8.7-5.6 8.9 0 .2 12.6 11.8 28 25.7 23.9 21.6 27.8 25.5 26.8 26.8-10.9 14.3-33 36.6-48.3 48.7-39.1 30.8-83.7 50-135.5 58.1-16.4 2.6-60.6 2.6-77 0-51.8-8.1-96.4-27.3-135.5-58.1-15.3-12.1-37.4-34.4-48.3-48.7-1-1.3 2.9-5.3 26.8-26.8 15.4-13.9 28-25.5 28-25.7 0-.2-2.5-4.2-5.6-8.9-7.7-11.9-17.4-32.6-22.2-47.5-20.6-63.9-8.7-133.7 31.9-187.2 7.9-10.4 24.1-27.1 33.9-35.1 29-23.4 65.3-39.2 102-44.2 13.2-1.8 40.5-1.8 54.2 0z"/><path d="M244 41.6c-75.8 5.3-140.5 58.7-159.4 131.8-6.5 24.7-7.3 55.8-2.2 80.2 6.1 29 19.6 56.7 38.6 79.2l6.1 7.2-2.8 1.1c-27.1 10.3-46.8 23.9-57.2 39.5l-3.1 4.8 2.2 2.3 2.1 2.3-6.7 8.7-6.8 8.8 6.8.5 6.7.5 1.9 8c1 4.4 2.1 8.6 2.3 9.4.4.9 3.3-2.7 7.6-9 3.9-5.7 7.8-11.2 8.6-12.2 1.5-1.6 1.4-1.7-1-1.7-1.5 0-2.7-.4-2.7-.9 0-.4 2.3-3.8 5.1-7.4 9.4-12.2 23.7-21.9 42.4-28.8 16.5-6.1 16.3-6.1 28 1.2 25.4 15.9 51.1 24.5 81.2 27.1 37.7 3.2 75.6-6.2 108.7-27 5.4-3.4 10.7-6.2 11.9-6.2 3 0 22.3 6.8 29.2 10.3 13.1 6.5 25.3 16.8 32.4 27l3.2 4.7h-3.2c-3 0-3.1.1-1.6 1.7.8 1 4.7 6.5 8.6 12.2 4.2 6.2 7.2 9.8 7.5 9 .3-.8 1-3.3 1.6-5.7.5-2.3 1.5-6 2-8.2l1.1-4h6.4c5.8 0 8-.9 5.7-2.4-.5-.3-3.5-3.9-6.7-8.1l-5.8-7.6 2.3-2.4 2.2-2.3-3.3-4.8c-10.9-15.8-32.3-30.5-58.2-39.7-1.6-.6-.9-1.7 4.3-7.9 13.6-16.1 25.6-37.1 32.5-56.8 11-31.8 12.5-69.7 3.9-102.6-17.5-67.4-74.5-119.2-143-129.7-10.5-1.7-30.3-2.7-39.4-2.1zm40.5 64.8c19.8 5.3 37.2 15.4 52 30.1 52.5 52 43.4 138.4-18.8 178.6-8.6 5.5-19.7 10.9-25.9 12.4-2.2.6-2.8.4-2.8-.9 0-1.4-3.4-1.6-33.5-1.6s-33.5.2-33.5 1.6c0 1.3-.6 1.5-2.7.9-6.3-1.5-17.4-6.9-26-12.4-62.2-40.2-71.3-126.6-18.8-178.6 17.2-17.1 37-27.5 61-32.1 4.7-.9 12.3-1.2 23-1 13.4.3 17.6.8 26 3z"/><path d="M215 134c0 11-.2 20-.6 20-.3 0-7.5-4.1-16.1-9.1-8.6-4.9-15.9-8.6-16.4-8.2-1.3 1.4-34.2 58.7-34.6 60.4-.3 1.2 4 4.2 16.7 11.4 9.4 5.4 17.3 10.1 17.5 10.5.2.3-7.2 5-16.6 10.4-9.3 5.4-16.9 9.9-16.9 10.1 0 1.4 35.3 61.1 36.3 61.2.6.2 7.7-3.5 15.7-8.2l14.5-8.4.3 18.9.2 19h80v-37.9l14.7 8.5c8.1 4.7 15 8.6 15.5 8.7.4.1 8.5-13.3 18-29.8 9.6-16.5 17.7-30.5 18-31.1.4-.6-6.1-5-16.3-10.8-9.3-5.4-16.9-10.1-16.9-10.4 0-.4 7.9-5.2 17.5-10.7 12.3-7 17.4-10.4 17-11.4-.5-1.4-34.4-60.3-35-60.9-.2-.2-7.5 3.7-16.2 8.7l-15.8 9.1-.3-20-.2-20h-80v20zM101 403.2c-6 7.3-10.9 13.7-10.7 14.3.6 1.9 21.3 16.8 33.2 23.8 27.5 16.3 56.1 26.8 90 32.8 11.7 2.1 16 2.4 42 2.4s30.3-.3 42-2.4c33.9-6 62.5-16.5 90-32.8 12.2-7.2 32.6-21.9 33.2-23.9.6-1.8-21.6-27.6-23-26.7-.7.4-3.9 2.8-7.2 5.4-29.7 23.2-67.7 38.6-108.5 44-20.3 2.7-49.3 1.4-72-3.2-31.2-6.3-65-21.7-89.5-40.8-3.3-2.6-6.5-5-7.2-5.4-.8-.5-5.2 4-12.3 12.5z"/></svg>